<svg width="24" height="29" viewBox="0 0 24 29" fill="none" xmlns="http://www.w3.org/2000/svg">
<path d="M11.7188 0C11.9998 5.54295e-05 12.2787 0.0897294 12.5068 0.262695L12.6367 0.376953L23.0596 10.6895C23.5646 11.1888 23.5633 11.9984 23.0566 12.4961C22.5905 12.9523 21.8609 12.9902 21.3535 12.6074L21.2207 12.4922L13.0156 4.37402V26.8467C13.0156 27.5522 12.4348 28.1249 11.7188 28.125C11.0577 28.125 10.5118 27.6369 10.4316 27.0068L10.4209 26.8467V1.27832C10.4209 0.760174 10.7376 0.294396 11.2236 0.0966797C11.3828 0.0319279 11.551 0 11.7188 0ZM7.04688 4.625C7.37718 4.62508 7.7077 4.74927 7.96191 4.99805C8.42793 5.45431 8.46793 6.17158 8.08105 6.67383L7.96484 6.80469L2.2168 12.4932C1.71166 12.9942 0.889411 12.9938 0.380859 12.4961C-0.0834297 12.0399 -0.123536 11.3218 0.261719 10.8193L0.37793 10.6875L6.12598 5.00098C6.38027 4.74873 6.71302 4.625 7.04688 4.625Z" fill="#EFF0F5"/>
</svg>
