<svg width="102" height="36" viewBox="0 0 102 36" fill="none" xmlns="http://www.w3.org/2000/svg">
<path d="M0 6C0 2.68629 2.68629 0 6 0H96C99.3137 0 102 2.68629 102 6V30C102 33.3137 99.3137 36 96 36H6C2.68629 36 0 33.3137 0 30V6Z" fill="url(#paint0_linear_4255_7070)"/>
<g filter="url(#filter0_ii_4255_7070)">
<path d="M0 6.64941C0 3.33571 2.68629 0.649414 6 0.649414H94.9218C98.2355 0.649414 100.922 3.33571 100.922 6.64941V29.0862C100.922 32.3999 98.2355 35.0862 94.9218 35.0862H6C2.68629 35.0862 0 32.3999 0 29.0862V6.64941Z" fill="url(#paint1_linear_4255_7070)"/>
</g>
<g opacity="0.38">
<rect x="1" y="1" width="100" height="34" rx="6" fill="black" fill-opacity="0.01"/>
</g>
<defs>
<filter id="filter0_ii_4255_7070" x="-1" y="-0.350586" width="102.922" height="36.4368" filterUnits="userSpaceOnUse" color-interpolation-filters="sRGB">
<feFlood flood-opacity="0" result="BackgroundImageFix"/>
<feBlend mode="normal" in="SourceGraphic" in2="BackgroundImageFix" result="shape"/>
<feColorMatrix in="SourceAlpha" type="matrix" values="0 0 0 0 0 0 0 0 0 0 0 0 0 0 0 0 0 0 127 0" result="hardAlpha"/>
<feOffset dx="1" dy="-1"/>
<feGaussianBlur stdDeviation="1"/>
<feComposite in2="hardAlpha" operator="arithmetic" k2="-1" k3="1"/>
<feColorMatrix type="matrix" values="0 0 0 0 0.368627 0 0 0 0 0.368627 0 0 0 0 0.368627 0 0 0 0.5 0"/>
<feBlend mode="normal" in2="shape" result="effect1_innerShadow_4255_7070"/>
<feColorMatrix in="SourceAlpha" type="matrix" values="0 0 0 0 0 0 0 0 0 0 0 0 0 0 0 0 0 0 127 0" result="hardAlpha"/>
<feOffset dx="-1" dy="1"/>
<feGaussianBlur stdDeviation="1"/>
<feComposite in2="hardAlpha" operator="arithmetic" k2="-1" k3="1"/>
<feColorMatrix type="matrix" values="0 0 0 0 1 0 0 0 0 1 0 0 0 0 1 0 0 0 0.3 0"/>
<feBlend mode="normal" in2="effect1_innerShadow_4255_7070" result="effect2_innerShadow_4255_7070"/>
</filter>
<linearGradient id="paint0_linear_4255_7070" x1="51" y1="0" x2="51" y2="36" gradientUnits="userSpaceOnUse">
<stop stop-color="#8285CF"/>
<stop offset="1" stop-color="#81829E"/>
</linearGradient>
<linearGradient id="paint1_linear_4255_7070" x1="50.4609" y1="0.649414" x2="50.4609" y2="35.0862" gradientUnits="userSpaceOnUse">
<stop stop-color="#8285CF"/>
<stop offset="1" stop-color="#ABADD1"/>
</linearGradient>
</defs>
</svg>
