<svg width="60" height="60" viewBox="0 0 60 60" fill="none" xmlns="http://www.w3.org/2000/svg">
<path d="M43.6004 23.3249H40.8504V15.9999C40.8504 13.1223 39.7073 10.3626 37.6725 8.32779C35.6377 6.29302 32.878 5.1499 30.0004 5.1499C27.1228 5.1499 24.3631 6.29302 22.3283 8.32779C20.2935 10.3626 19.1504 13.1223 19.1504 15.9999V23.3249H16.4004C14.7428 23.3249 13.1531 23.9834 11.981 25.1555C10.8089 26.3276 10.1504 27.9173 10.1504 29.5749V48.5999C10.155 50.2561 10.815 51.8431 11.9861 53.0142C13.1572 54.1853 14.7442 54.8453 16.4004 54.8499H43.6004C45.2566 54.8453 46.8436 54.1853 48.0147 53.0142C49.1858 51.8431 49.8458 50.2561 49.8504 48.5999V29.5749C49.8504 27.9173 49.1919 26.3276 48.0198 25.1555C46.8477 23.9834 45.258 23.3249 43.6004 23.3249ZM21.6504 15.9999C21.6504 13.7853 22.5301 11.6615 24.0961 10.0956C25.662 8.52963 27.7858 7.6499 30.0004 7.6499C32.215 7.6499 34.3388 8.52963 35.9047 10.0956C37.4707 11.6615 38.3504 13.7853 38.3504 15.9999V23.3249H21.6504V15.9999ZM47.3504 48.5999C47.3438 49.5924 46.9467 50.5425 46.2448 51.2443C45.543 51.9462 44.5929 52.3434 43.6004 52.3499H16.4004C15.4079 52.3434 14.4578 51.9462 13.756 51.2443C13.0541 50.5425 12.6569 49.5924 12.6504 48.5999V29.5749C12.6504 28.5803 13.0455 27.6265 13.7487 26.9233C14.452 26.22 15.4058 25.8249 16.4004 25.8249H43.6004C44.595 25.8249 45.5488 26.22 46.252 26.9233C46.9553 27.6265 47.3504 28.5803 47.3504 29.5749V48.5999Z" fill="#C8C8C8"/>
<path d="M32.5 37.375C32.5025 37.8123 32.3879 38.2423 32.1681 38.6204C31.9483 38.9985 31.6313 39.3108 31.25 39.525V43.275C31.25 43.6065 31.1183 43.9245 30.8839 44.1589C30.6495 44.3933 30.3316 44.525 30 44.525C29.6685 44.525 29.3506 44.3933 29.1162 44.1589C28.8817 43.9245 28.75 43.6065 28.75 43.275V39.525C28.3688 39.3108 28.0518 38.9985 27.832 38.6204C27.6121 38.2423 27.4975 37.8123 27.5 37.375C27.5 36.712 27.7634 36.0761 28.2323 35.6072C28.7011 35.1384 29.337 34.875 30 34.875C30.6631 34.875 31.299 35.1384 31.7678 35.6072C32.2366 36.0761 32.5 36.712 32.5 37.375Z" fill="#C8C8C8"/>
</svg>
