<svg width="30" height="31" viewBox="0 0 30 31" fill="none" xmlns="http://www.w3.org/2000/svg">
<g style="mix-blend-mode:multiply" opacity="0.5">
<path d="M15.2346 1.15039C7.26991 1.15598 0.7962 7.5549 0.590915 15.5165C0.539244 17.5262 0.795269 19.4469 1.47257 21.2056C1.47257 21.2056 -0.782312 10.2721 7.55992 4.5598C9.6989 3.13813 12.7582 2.4259 15.5325 2.48548C22.5574 2.63677 28.7151 8.97471 28.763 16.0007C28.8119 23.245 22.4778 29.3278 15.2453 29.3278C13.0933 29.3278 10.7621 28.8111 9.08863 27.6925C6.64335 26.0585 6.60285 23.4465 7.39653 21.2833C9.61231 15.2428 13.2171 6.44326 15.2453 6.25287C16.1856 6.16489 18.7776 10.0184 22.6338 22.6459C22.6435 22.678 22.6487 22.7059 22.651 22.732C23.0592 23.3278 23.4484 23.9795 23.4484 23.9795C23.109 23.5331 22.5611 23.0662 22.0253 22.6659C16.3067 18.567 9.66259 17.3209 9.66259 17.3209L9.39679 17.9186C9.39679 17.9186 15.2453 19.0302 22.5188 24.1741C23.1072 24.5903 23.6877 24.5684 23.8138 23.967C24.0992 22.6082 18.3228 5.06628 15.2393 5.06628C13.1245 5.06628 8.64175 15.0534 6.3594 21.2768C5.13885 24.6047 6.23418 27.8549 9.48709 29.2626C11.2821 30.0391 13.2618 30.4697 15.3422 30.4692C23.4479 30.4683 29.9863 24.2221 29.9998 16.1166C30.0138 7.95245 23.3967 1.14434 15.2346 1.15039Z" fill="black"/>
<path d="M7.46335 16.763C7.46335 16.763 5.05858 16.513 2.948 17.0032C2.948 17.0032 5.55852 16.87 7.21478 17.4086L7.46335 16.763Z" fill="black"/>
<path d="M16.0626 14.7672C16.0626 14.3161 15.6967 13.9502 15.2452 13.9502C14.7936 13.9502 14.4277 14.3161 14.4277 14.7672C14.4277 15.2187 14.7936 15.5846 15.2452 15.5846C15.6967 15.5846 16.0626 15.2187 16.0626 14.7672Z" fill="black"/>
</g>
<path d="M14.6502 4.03133e-06C6.68544 0.00559017 0.211728 6.40405 0.00644196 14.3662C-0.0452286 16.3758 0.210797 18.2965 0.8881 20.0552C0.8881 20.0552 -1.36678 9.1217 6.97545 3.40941C9.11489 1.98774 12.1737 1.27551 14.9481 1.33509C21.9729 1.48638 28.1306 7.82432 28.1785 14.8503C28.2274 22.0946 21.8933 28.1774 14.6609 28.1774C12.5093 28.1774 10.1781 27.6607 8.50415 26.5421C6.05888 24.9081 6.01838 22.2961 6.81206 20.1329C9.02784 14.0924 12.6327 5.29287 14.6609 5.10248C15.6012 5.0145 18.1931 8.868 22.0493 21.4955C22.0591 21.5276 22.0642 21.5555 22.067 21.5816C22.4752 22.1774 22.8644 22.8292 22.8644 22.8292C22.5246 22.3827 21.9767 21.9158 21.4409 21.5155C15.7222 17.4167 9.07812 16.1705 9.07812 16.1705L8.81231 16.7682C8.81231 16.7682 14.6609 17.8798 21.9343 23.0237C22.5232 23.4399 23.1036 23.418 23.2298 22.8166C23.5147 21.4578 17.7383 3.91589 14.6553 3.91589C12.54 3.91589 8.05727 13.903 5.77492 20.1264C4.55438 23.4543 5.6497 26.7045 8.90262 28.1122C10.6976 28.8887 12.6774 29.3193 14.7582 29.3189C22.8634 29.3179 29.4019 23.0717 29.4154 14.9662C29.4293 6.80206 22.8122 -0.00604762 14.6502 4.03133e-06Z" fill="#8253F2"/>
<path d="M6.6303 16.2592L6.87888 15.6135C6.87888 15.6135 4.47457 15.3636 2.36353 15.8537C2.36353 15.8537 4.97405 15.7206 6.6303 16.2592Z" fill="white"/>
<path d="M15.4786 13.6168C15.4786 14.0683 15.1127 14.4342 14.6612 14.4342C14.2096 14.4342 13.8438 14.0683 13.8438 13.6168C13.8438 13.1657 14.2096 12.7998 14.6612 12.7998C15.1127 12.7998 15.4786 13.1657 15.4786 13.6168Z" fill="white"/>
</svg>
