<svg width="19" height="19" viewBox="0 0 19 19" fill="none" xmlns="http://www.w3.org/2000/svg">
<path d="M12.3429 0.535261C12.6238 0.470704 12.9178 0.495206 13.1841 0.605365C13.4504 0.715524 13.6758 0.905873 13.829 1.14998L15.2081 3.35216C15.3193 3.52953 15.4692 3.67944 15.6466 3.79066L17.8486 5.16997C18.0932 5.32307 18.284 5.54862 18.3944 5.81524C18.5048 6.08187 18.5294 6.37628 18.4646 6.65751L17.8819 9.18856C17.8349 9.39312 17.8349 9.60567 17.8819 9.81022L18.4646 12.3427C18.5287 12.6235 18.5039 12.9173 18.3935 13.1833C18.2831 13.4494 18.0927 13.6745 17.8486 13.8274L15.6466 15.2081C15.4692 15.3193 15.3193 15.4693 15.2081 15.6466L13.829 17.8488C13.676 18.0932 13.4506 18.2838 13.1843 18.3942C12.918 18.5046 12.6239 18.5293 12.3429 18.4649L9.81072 17.8821C9.60662 17.8353 9.39459 17.8353 9.1905 17.8821L6.65828 18.4649C6.37728 18.5293 6.08319 18.5046 5.81688 18.3942C5.55057 18.2838 5.32526 18.0932 5.17226 17.8488L3.79307 15.6466C3.68147 15.4691 3.53109 15.3192 3.35323 15.2081L1.15263 13.8288C0.90829 13.6758 0.717674 13.4505 0.60727 13.1841C0.496866 12.9178 0.472156 12.6237 0.536575 12.3427L1.11794 9.81022C1.16495 9.60567 1.16495 9.39312 1.11794 9.18856L0.535188 6.65751C0.470589 6.37614 0.495352 6.08162 0.606026 5.81498C0.7167 5.54835 0.907774 5.32287 1.15263 5.16997L3.35323 3.79066C3.53109 3.67961 3.68147 3.52969 3.79307 3.35216L5.17226 1.14998C5.32537 0.906137 5.55053 0.715962 5.81654 0.605818C6.08256 0.495674 6.37624 0.471015 6.6569 0.535261L9.1905 1.11668C9.39459 1.16348 9.60662 1.16348 9.81072 1.11668L12.3429 0.535261Z" fill="#7880D8" stroke="white"/>
<path d="M6.05176 10.2428L8.87535 12.9473L12.9477 6.05078" fill="#7880D8"/>
<path d="M6.05176 10.2428L8.87535 12.9473L12.9477 6.05078" stroke="white" stroke-linecap="round" stroke-linejoin="round"/>
</svg>
