<svg width="20" height="10" viewBox="0 0 20 10" fill="none" xmlns="http://www.w3.org/2000/svg">
<g clip-path="url(#clip0_4255_23902)">
<path d="M19.5 0H0V9.75H19.5V0Z" fill="#00008B"/>
<mask id="mask0_4255_23902" style="mask-type:luminance" maskUnits="userSpaceOnUse" x="0" y="0" width="10" height="5">
<path d="M0 0H9.75V4.875H0V0Z" fill="white"/>
</mask>
<g mask="url(#mask0_4255_23902)">
<path d="M0 0L9.75 4.875L0 0ZM9.75 0L0 4.875L9.75 0Z" fill="black"/>
<path d="M0 0L9.75 4.875M9.75 0L0 4.875" stroke="white" stroke-width="0.975"/>
</g>
<mask id="mask1_4255_23902" style="mask-type:luminance" maskUnits="userSpaceOnUse" x="0" y="0" width="10" height="5">
<path d="M0 0V2.4375H9.75V4.875L0 0ZM9.75 0H4.875V4.875H0L9.75 0Z" fill="white"/>
</mask>
<g mask="url(#mask1_4255_23902)">
<path d="M0 0L9.75 4.875L0 0ZM9.75 0L0 4.875L9.75 0Z" fill="black"/>
<path d="M0 0L9.75 4.875M9.75 0L0 4.875" stroke="#FF0000" stroke-width="0.65"/>
</g>
<path d="M4.875 0V4.875V0ZM0 2.4375H9.75H0Z" fill="black"/>
<path d="M4.875 0V4.875M0 2.4375H9.75" stroke="white" stroke-width="1.625"/>
<path d="M4.875 0V4.875V0ZM0 2.4375H9.75H0Z" fill="black"/>
<path d="M4.875 0V4.875M0 2.4375H9.75" stroke="#FF0000" stroke-width="0.975"/>
<path d="M4.87505 5.84961L5.15708 6.72648L6.01848 6.40026L5.50875 7.16747L6.30088 7.63755L5.38324 7.71738L5.50961 8.62978L4.87505 7.96211L4.2405 8.62978L4.36686 7.71738L3.44922 7.63755L4.24135 7.16747L3.73162 6.40026L4.59303 6.72648L4.87505 5.84961Z" fill="white"/>
<path d="M14.6267 7.42773L14.761 7.84529L15.1712 7.68995L14.9285 8.05529L15.3057 8.27913L14.8687 8.31715L14.9289 8.75162L14.6267 8.43369L14.3246 8.75162L14.3847 8.31715L13.9478 8.27913L14.325 8.05529L14.0822 7.68995L14.4924 7.84529L14.6267 7.42773Z" fill="white"/>
<path d="M12.1892 3.56836L12.3235 3.98592L12.7337 3.83057L12.491 4.19591L12.8682 4.41976L12.4312 4.45777L12.4914 4.89225L12.1892 4.57431L11.8871 4.89225L11.9472 4.45777L11.5103 4.41976L11.8875 4.19591L11.6447 3.83057L12.0549 3.98592L12.1892 3.56836Z" fill="white"/>
<path d="M14.6267 0.927734L14.761 1.34529L15.1712 1.18995L14.9285 1.55529L15.3057 1.77913L14.8687 1.81715L14.9289 2.25162L14.6267 1.93369L14.3246 2.25162L14.3847 1.81715L13.9478 1.77913L14.325 1.55529L14.0822 1.18995L14.4924 1.34529L14.6267 0.927734Z" fill="white"/>
<path d="M16.791 2.91895L16.9253 3.3365L17.3355 3.18116L17.0928 3.5465L17.47 3.77034L17.033 3.80836L17.0932 4.24283L16.791 3.9249L16.4889 4.24283L16.549 3.80836L16.1121 3.77034L16.4893 3.5465L16.2465 3.18116L16.6567 3.3365L16.791 2.91895Z" fill="white"/>
<path d="M15.601 4.875L15.7071 5.13518L15.9873 5.15571L15.7727 5.33704L15.8398 5.60991L15.601 5.46181L15.3622 5.60991L15.4292 5.33704L15.2146 5.15571L15.4948 5.13518L15.601 4.875Z" fill="white"/>
</g>
<defs>
<clipPath id="clip0_4255_23902">
<rect width="19.5" height="9.75" rx="2" fill="white"/>
</clipPath>
</defs>
</svg>
