<svg width="20" height="10" viewBox="0 0 20 10" fill="none" xmlns="http://www.w3.org/2000/svg">
<path d="M0 4C0 2.11438 0 1.17157 0.585786 0.585786C1.17157 0 2.11438 0 4 0H16C17.8856 0 18.8284 0 19.4142 0.585786C20 1.17157 20 2.11438 20 4V6C20 7.88562 20 8.82843 19.4142 9.41421C18.8284 10 17.8856 10 16 10H4C2.11438 10 1.17157 10 0.585786 9.41421C0 8.82843 0 7.88562 0 6V4Z" fill="#ED2939"/>
<path d="M6.33583 8.68045C8.36854 8.68045 10.0164 7.03261 10.0164 4.99989C10.0164 2.96718 8.36854 1.31934 6.33583 1.31934C4.30311 1.31934 2.65527 2.96718 2.65527 4.99989C2.65527 7.03261 4.30311 8.68045 6.33583 8.68045Z" fill="white"/>
<path d="M8.00233 8.68045C10.035 8.68045 11.6829 7.03261 11.6829 4.99989C11.6829 2.96718 10.035 1.31934 8.00233 1.31934C5.96962 1.31934 4.32178 2.96718 4.32178 4.99989C4.32178 7.03261 5.96962 8.68045 8.00233 8.68045Z" fill="#ED2939"/>
<path d="M8.63082 2.79846C8.54217 2.52562 8.15618 2.52562 8.06753 2.79846C7.97888 3.0713 8.29115 3.29818 8.52324 3.12956C8.75533 2.96093 8.63605 2.59383 8.34917 2.59383C8.06229 2.59383 7.94302 2.96093 8.17511 3.12956C8.4072 3.29818 8.71947 3.0713 8.63082 2.79846Z" fill="white"/>
<path d="M10.5328 4.58712C10.7649 4.41849 10.6456 4.05139 10.3587 4.05139C10.0719 4.05139 9.95259 4.41849 10.1847 4.58712C10.4168 4.75574 10.729 4.52886 10.6404 4.25602C10.5517 3.98318 10.1657 3.98318 10.0771 4.25602C9.98845 4.52886 10.3007 4.75574 10.5328 4.58712Z" fill="white"/>
<path d="M6.82724 6.61601C6.73859 6.88885 7.05087 7.11573 7.28296 6.94711C7.51505 6.77848 7.39577 6.41138 7.10889 6.41138C6.82201 6.41138 6.70273 6.77848 6.93482 6.94711C7.16691 7.11573 7.47919 6.88885 7.39054 6.61601C7.30189 6.34317 6.91589 6.34317 6.82724 6.61601Z" fill="white"/>
<path d="M9.41444 6.94727C9.64653 7.11589 9.9588 6.88901 9.87015 6.61617C9.7815 6.34333 9.39551 6.34333 9.30686 6.61617C9.21821 6.88901 9.53048 7.11589 9.76257 6.94727C9.99466 6.77864 9.87538 6.41154 9.5885 6.41154C9.30163 6.41154 9.18235 6.77864 9.41444 6.94727Z" fill="white"/>
<path d="M6.33932 4.05115C6.05244 4.05115 5.93316 4.41825 6.16525 4.58687C6.39734 4.7555 6.70961 4.52861 6.62096 4.25578C6.53231 3.98294 6.14632 3.98294 6.05767 4.25578C5.96902 4.52861 6.28129 4.7555 6.51338 4.58687C6.74547 4.41825 6.6262 4.05115 6.33932 4.05115Z" fill="white"/>
</svg>
